<?xml version="1.0" encoding="UTF-8" standalone="no"?>
<!DOCTYPE svg PUBLIC "-//W3C//DTD SVG 1.1//EN" "http://www.w3.org/Graphics/SVG/1.1/DTD/svg11.dtd">
<svg width="100%" height="100%" viewBox="0 0 2000 2000" version="1.1" xmlns="http://www.w3.org/2000/svg" xmlns:xlink="http://www.w3.org/1999/xlink" xml:space="preserve" xmlns:serif="http://www.serif.com/" style="fill-rule:evenodd;clip-rule:evenodd;stroke-linecap:round;stroke-linejoin:round;stroke-miterlimit:1.5;">
    <g transform="matrix(4.166667,0,0,4.166667,0,0)">
        <g transform="matrix(0.573806,0,0,0.573806,-95.991315,-274.90624)">
            <g transform="matrix(0.613389,0,0,0.721467,84.71256,147.954473)">
                <path d="M720.24,585.736L720.24,902.605C720.24,932.708 691.494,957.149 656.086,957.149L283.27,957.149C247.862,957.149 219.116,932.708 219.116,902.605L219.116,585.736C219.116,555.633 247.862,531.192 283.27,531.192L656.086,531.192C691.494,531.192 720.24,555.633 720.24,585.736Z" style="fill:none;stroke:rgb(15,108,191);stroke-width:78.08px;"/>
            </g>
            <g transform="matrix(0.613389,0,0,0.721467,510.194379,147.954473)">
                <path d="M720.24,585.736L720.24,902.605C720.24,932.708 691.494,957.149 656.086,957.149L283.27,957.149C247.862,957.149 219.116,932.708 219.116,902.605L219.116,585.736C219.116,555.633 247.862,531.192 283.27,531.192L656.086,531.192C691.494,531.192 720.24,555.633 720.24,585.736Z" style="fill:none;stroke:rgb(15,108,191);stroke-width:78.08px;"/>
            </g>
            <g transform="matrix(0.613389,0,0,0.721467,84.71256,572.961382)">
                <path d="M720.24,585.736L720.24,902.605C720.24,932.708 691.494,957.149 656.086,957.149L283.27,957.149C247.862,957.149 219.116,932.708 219.116,902.605L219.116,585.736C219.116,555.633 247.862,531.192 283.27,531.192L656.086,531.192C691.494,531.192 720.24,555.633 720.24,585.736Z" style="fill:none;stroke:rgb(15,108,191);stroke-width:78.08px;"/>
            </g>
            <g transform="matrix(0.797821,-0.797821,0.797821,0.797821,-701.074,800.94083)">
                <g transform="matrix(0.703375,0.710819,-0.710819,0.703375,973.474849,-192.810993)">
                    <path d="M721.828,1190.012L645.708,958.908L877.6,1032.591L771.631,1083.513L721.828,1190.012Z" style="fill:rgb(249,128,18);stroke:rgb(249,128,18);stroke-width:23.17px;stroke-miterlimit:50;"/>
                </g>
                <g transform="matrix(1.273655,0,0,0.896451,-626.675419,225.319267)">
                    <path d="M1093.54,978.604L1093.54,1118.365C1093.54,1130.727 1086.477,1140.763 1077.776,1140.763C1069.076,1140.763 1062.012,1130.727 1062.012,1118.365L1062.012,978.604C1062.012,966.243 1069.076,956.207 1077.776,956.207C1086.477,956.207 1093.54,966.243 1093.54,978.604Z" style="fill:rgb(249,128,18);stroke:rgb(249,128,18);stroke-width:16.83px;"/>
                </g>
            </g>
        </g>
    </g>
</svg>
